<svg width="1000" height="1000" viewBox="0 0 1000 1000" fill="none" xmlns="http://www.w3.org/2000/svg">
<path d="M500 0C776.142 0 1000 223.858 1000 500C1000 776.142 776.142 1000 500 1000C223.858 1000 0 776.142 0 500C0 223.858 223.858 0 500 0ZM499.2 88.9004C446.1 88.9004 402.9 132.1 402.9 185.2C402.9 195.1 404.7 205 407.4 214L486.6 467.8L363.3 232C358.8 223.9 352.5 215.8 346.2 209.5C308.4 171.7 247.2 171.7 210.3 209.5C172.5 246.4 172.5 307.6 210.3 344.5C216.6 351.7 224.7 358 233.7 362.5L468.6 485.8L214.8 406.6C205.8 403.9 195.9 402.1 186 402.1C132.9 402.1 90.5996 445.3 90.5996 498.4C90.5998 551.5 132.9 594.7 186 594.7C195.9 594.7 205.8 592.9 214.8 590.2L468.6 511L233.7 634.3C224.7 638.8 216.6 645.1 210.3 651.4C172.5 689.2 172.5 750.4 210.3 787.3C247.2 825.1 308.4 825.1 346.2 787.3C352.5 781 358.8 772.9 363.3 763.9L486.6 529L407.4 782.8C404.7 791.8 402.9 801.7 402.9 811.6C402.9 864.7 446.1 907 499.2 907C552.3 907 595.5 864.7 595.5 811.6C595.5 801.7 593.7 791.8 591 782.8L511.8 529L635.1 763.9C639.6 772.9 645.9 781 653.1 787.3C690 825.1 751.2 825.1 789 787.3C825.9 750.4 825.9 689.2 789 651.4C781.8 645.1 773.7 638.8 765.6 634.3L529.8 511L783.6 590.2C792.6 592.9 802.5 594.7 812.4 594.7C865.5 594.7 908.7 551.5 908.7 498.4C908.7 445.301 865.5 402.1 812.4 402.1C802.5 402.1 792.6 403.9 783.6 406.6L529.8 485.8L765.6 362.5C773.7 358 781.8 351.7 788.1 344.5C825.9 307.6 825.9 246.4 788.1 209.5C751.2 171.7 690 171.7 653.1 209.5C645.9 215.8 639.6 223.9 635.1 232L511.8 467.8L591 214C593.7 205 595.5 195.1 595.5 185.2C595.5 132.1 552.3 88.9005 499.2 88.9004Z" fill="#4101D6"/>
</svg>
